#!OML:ASF \\sashay\E\basketball\basketball\Project 1\Capture day 1\Session 1\Subject.ASF
:FULLY-SPECIFIED
:DEGREES
52
root -25.5244 12.8074 1.41891 -175.732 8.27977 -185.358
lowerback 38.4228 -1.95407 -7.69417
upperback 13.8353 -0.259126 -6.81111
thorax -3.17927 2.03836 -3.25118
lowerneck -1.37182 -8.21517 -17.8589
upperneck -30.1645 -3.65019 24.7919
head -7.52511 -0.120196 12.1821
rclavicle -5.80451e-014 -9.54166e-015
rhumerus 2.24844 -40.3927 -39.1468
rradius 70.7058
rwrist -30.5379
rhand -38.9996 63.7324
rfingers 7.12502
rthumb -12.0033 34.0966
lclavicle -5.80451e-014 -9.54166e-015
lhumerus -17.3388 17.5798 40.9373
lradius 82.3721
lwrist 39.023
lhand -31.0233 20.9474
lfingers 7.12502
lthumb -4.30567 50.8836
rfemur -56.7828 -32.5306 5.39827
rtibia 83.6802
rfoot -19.3528 -18.8288
rtoes 6.92125
lfemur -8.32754 12.6094 17.7214
ltibia 27.8767
lfoot 11.0764 10.1852
ltoes -55.4324
53
root -25.2226 12.9154 1.33143 -175.58 9.01127 -186.158
lowerback 37.4858 -1.93084 -7.29599
upperback 13.8079 -0.151254 -7.16502
thorax -3.08168 2.05988 -3.7962
lowerneck -1.11332 -8.49084 -17.6229
upperneck -29.9045 -4.60776 23.4637
head -7.35809 -0.62213 11.556
rclavicle -2.06736e-014 -2.54444e-014
rhumerus 3.25042 -39.6044 -39.0875
rradius 70.5021
rwrist -29.9941
rhand -39.3213 63.0451
rfingers 7.12502
rthumb -12.3135 33.4276
lclavicle -2.06736e-014 -2.54444e-014
lhumerus -19.4173 16.87 42.039
lradius 82.6861
lwrist 39.1804
lhand -30.9264 20.7271
lfingers 7.12502
lthumb -4.21203 50.6652
rfemur -56.8344 -32.4554 6.05478
rtibia 83.9147
rfoot -20.6938 -18.5196
rtoes 5.02962
lfemur -7.05694 11.0574 16.9626
ltibia 25.7768
lfoot 14.7171 13.3967
ltoes -52.2747
54
root -24.9107 13.0185 1.25614 -175.461 9.31699 -186.793
lowerback 36.9079 -2.09101 -6.76408
upperback 13.653 -0.256254 -7.57141
thorax -3.11553 2.00725 -4.45407
lowerneck -0.0973907 -8.05253 -18.0944
upperneck -29.6989 -4.45604 23.0957
head -7.53086 -0.611899 11.5514
rclavicle 7.95139e-015 -8.34896e-014
rhumerus 4.17574 -38.9647 -39.4761
rradius 70.1426
rwrist -29.3037
rhand -39.4832 62.6747
rfingers 7.12502
rthumb -12.4695 33.0667
lclavicle 7.95139e-015 -8.34896e-014
lhumerus -21.1087 16.369 42.5573
lradius 82.7262
lwrist 38.7218
lhand -29.7573 20.5282
lfingers 7.12502
lthumb -3.08305 50.4857
rfemur -56.5238 -32.577 6.77934
rtibia 83.9604
rfoot -22.1964 -18.6843
rtoes 0.576273
lfemur -6.81459 9.69513 16.2151
ltibia 24.9626
lfoot 18.5971 14.0262
ltoes -50.2904
55
root -24.589 13.112 1.18762 -175.382 9.31088 -187.495
lowerback 36.5475 -2.21625 -6.55035
upperback 13.419 -0.452941 -7.86215
thorax -3.28718 1.89665 -4.80491
lowerneck 0.584968 -7.78019 -18.2141
upperneck -29.2692 -4.5369 22.5642
head -7.53569 -0.734016 11.3687
rclavicle -4.05521e-014 -1.43125e-014
rhumerus 4.93172 -38.2837 -39.8279
rradius 69.5507
rwrist -28.608
rhand -39.7425 62.9529
rfingers 7.12502
rthumb -12.7195 33.3603
lclavicle -4.05521e-014 -1.43125e-014
lhumerus -22.5291 16.0028 42.8728
lradius 82.6974
lwrist 38.18
lhand -28.3079 20.3011
lfingers 7.12502
lthumb -1.68331 50.2742
rfemur -55.8093 -32.6398 7.28195
rtibia 83.5949
rfoot -22.7038 -19.6744
rtoes -5.47428
lfemur -7.58009 9.25807 15.2762
ltibia 25.7592
lfoot 21.0329 12.7916
ltoes -46.8585
56
root -24.252 13.2078 1.12862 -175.291 9.08095 -188.217
lowerback 36.2991 -2.2912 -6.41686
upperback 13.1925 -0.579421 -8.21639
thorax -3.4813 1.83801 -5.21057
lowerneck 1.51576 -7.4026 -18.1555
upperneck -29.0048 -4.33969 22.4253
head -7.68718 -0.755291 11.3422
rclavicle 1.19271e-014 3.97569e-014
rhumerus 4.90528 -37.9309 -39.9368
rradius 69.1205
rwrist -28.072
rhand -40.0064 62.651
rfingers 7.12502
rthumb -12.974 33.0744
lclavicle 1.19271e-014 3.97569e-014
lhumerus -23.0738 15.1762 42.9223
lradius 82.5144
lwrist 38.0955
lhand -27.6656 20.0479
lfingers 7.12502
lthumb -1.06298 50.025
rfemur -55.1709 -32.673 7.8384
rtibia 83.4648
rfoot -23.9417 -19.8545
rtoes -5.70189
lfemur -9.2999 10.4173 14.2173
ltibia 28.2158
lfoot 19.2246 9.51439
ltoes -44.7835
57
root -23.9105 13.2853 1.08269 -175.196 8.6619 -188.687
lowerback 36.247 -2.35454 -6.20817
upperback 13.0268 -0.624594 -8.53565
thorax -3.6752 1.8384 -5.65188
lowerneck 2.53191 -6.86784 -17.8888
upperneck -28.8827 -3.77394 22.5057
head -7.9847 -0.610718 11.382
rclavicle -1.82882e-014 1.03368e-014
rhumerus 4.34358 -37.9797 -39.928
rradius 69.0326
rwrist -27.6616
rhand -40.117 62.1404
rfingers 7.12502
rthumb -13.0805 32.5706
lclavicle -1.82882e-014 1.03368e-014
lhumerus -22.7186 14.1344 42.7511
lradius 82.1869
lwrist 38.1762
lhand -26.8384 20.0377
lfingers 7.12502
lthumb -0.264055 50.0173
rfemur -54.5928 -32.8029 8.72198
rtibia 83.4892
rfoot -25.4704 -19.9928
rtoes -5.25358
lfemur -11.7733 12.7769 13.3208
ltibia 31.9355
lfoot 17.0272 6.24506
ltoes -42.1232
